# Blender 4.1.1
# www.blender.org
mtllib 2.mtl
o Plane
v 0.013447 0.000215 0.009282
v 6.000000 0.000000 0.000000
v 0.000000 -0.000000 -6.000000
v 6.000000 -0.000000 -6.000000
v 0.000000 2.800000 -0.000000
v 6.000000 2.800000 -0.000000
v 0.000000 2.799999 -6.000000
v 6.000000 2.799999 -6.000000
v 0.000000 2.800000 -0.000000
v 0.000000 2.799999 -6.000000
v 0.000000 -0.000000 -3.000000
v 6.000000 -0.000000 -3.000000
v 0.000000 2.800000 -3.000000
v 6.000000 2.800000 -3.000000
v 0.000000 2.800000 -3.000000
v 0.000000 -0.000000 -1.500000
v 0.000000 2.800000 -1.500000
v 0.000000 2.800000 -1.500000
v 6.000000 -0.000000 -1.500000
v 6.000000 2.800000 -1.500000
v 6.000000 -0.000000 -4.500000
v 6.000000 2.800000 -4.500000
v 0.000000 -0.000000 -4.500000
v 0.000000 2.800000 -4.500000
v 0.000000 2.800000 -4.500000
v 0.000000 -0.000000 -3.750000
v 0.000000 2.800000 -3.750000
v 0.000000 2.800000 -3.750000
v 6.000000 -0.000000 -3.750000
v 6.000000 2.800000 -3.750000
v 6.000000 -0.000000 -2.250000
v 6.000000 2.800000 -2.250000
v 0.000000 -0.000000 -2.250000
v 0.000000 2.800000 -2.250000
v 0.000000 2.800000 -2.250000
v 6.000000 2.099999 -6.000000
v 6.000000 2.100000 -0.000000
v 0.000000 2.100000 -0.000000
v 0.000000 2.099999 -6.000000
v 0.000000 2.100000 -3.000000
v 6.000000 2.100000 -3.000000
v 0.000000 2.100000 -1.500000
v 6.000000 2.100000 -1.500000
v 6.000000 2.100000 -4.500000
v 0.000000 2.100000 -4.500000
v 0.000000 2.100000 -3.750000
v 6.000000 2.100000 -3.750000
v 6.000000 2.100000 -2.250000
v 0.000000 2.100000 -2.250000
v -12.687501 0.012500 -1.312500
v -9.312501 0.012500 -1.312500
v -12.687501 0.012500 -4.687500
v -9.312501 0.012500 -4.687500
v -12.687501 1.587500 -1.312500
v -9.312501 1.587500 -1.312500
v -12.687501 1.587500 -4.687500
v -9.312501 1.587500 -4.687500
v -12.687501 1.587500 -1.312500
v -12.687501 1.587500 -4.687500
v -12.687501 0.012500 -3.000000
v -9.312501 0.012500 -3.000000
v -12.687501 1.587500 -3.000000
v -9.312501 1.587500 -3.000000
v -12.687501 1.587500 -3.000000
v -12.687501 0.012500 -2.156250
v -12.687501 1.587500 -2.156250
v -12.687501 1.587500 -2.156250
v -9.312501 0.012500 -2.156250
v -9.312501 1.587500 -2.156250
v -9.312501 0.012500 -3.843750
v -9.312501 1.587500 -3.843750
v -12.687501 0.012500 -3.843750
v -12.687501 1.587500 -3.843750
v -12.687501 1.587500 -3.843750
v -12.687501 0.012500 -3.421875
v -12.687501 1.587500 -3.421875
v -12.687501 1.587500 -3.421875
v -9.312501 0.012500 -3.421875
v -9.312501 1.587500 -3.421875
v -9.312501 0.012500 -2.578125
v -9.312501 1.587500 -2.578125
v -12.687501 0.012500 -2.578125
v -12.687501 1.587500 -2.578125
v -12.687501 1.587500 -2.578125
v -9.312501 1.193750 -4.687500
v -9.312501 1.193750 -1.312500
v -12.687501 1.193750 -1.312500
v -12.687501 1.193750 -4.687500
v -12.687501 1.193750 -3.000000
v -9.312501 1.193750 -3.000000
v -12.687501 1.193750 -2.156250
v -9.312501 1.193750 -2.156250
v -9.312501 1.193750 -3.843750
v -12.687501 1.193750 -3.843750
v -12.687501 1.193750 -3.421875
v -9.312501 1.193750 -3.421875
v -9.312501 1.193750 -2.578125
v -12.687501 1.193750 -2.578125
v -9.312501 0.012500 -3.421875
v -9.312501 0.012500 -3.000000
v -9.312501 0.012500 -2.578125
v -9.312501 1.193750 -3.000000
v -9.312501 1.193750 -3.421875
v -9.312501 1.193750 -2.578125
v 0.000000 2.800000 -0.000000
v 6.000000 2.800000 -0.000000
v 0.000000 2.800000 -0.000000
v 6.000000 2.800000 -0.000000
v 0.000000 2.800000 -6.000000
v 6.000000 2.800000 -6.000000
v 6.000000 2.799999 -6.000000
v 6.000000 2.800000 -4.500000
v 6.000000 2.799999 -6.000000
v 6.000000 2.799999 -6.000000
v -9.312501 1.587500 -4.687500
v -9.312501 1.587500 -3.843750
v -12.687501 1.587500 -4.687500
v -9.312501 1.587500 -4.687500
v -12.687501 1.587500 -1.312500
v -9.312501 1.587500 -1.312500
vn -0.0000 1.0000 -0.0000
vn -1.0000 -0.0000 -0.0000
vn 1.0000 -0.0000 -0.0000
vn -0.0000 -0.0000 1.0000
vn -0.0000 -0.0000 -1.0000
vn -0.0000 -0.0000 -0.0000
vn -0.0000 1.0000 -0.0001
vn 0.0013 1.0000 -0.0000
vn 1.0000 0.0032 -0.0045
vn 0.0969 -0.9953 -0.0000
vn -0.0008 -0.0022 -1.0000
vn 0.0352 -0.0000 -0.9994
vn 0.0352 -0.0000 0.9994
vn -0.0000 -1.0000 -0.0000
vt 0.000000 4.500000
vt 6.000000 4.500000
vt 6.000000 6.000000
vt 0.000000 6.000000
vt 2.100123 1.500205
vt 2.100123 0.000410
vt 2.800027 0.000410
vt 2.800027 1.500205
vt -1.099780 4.499804
vt -1.099780 5.999599
vt -1.799685 5.999599
vt -1.799685 4.499804
vt 2.099625 5.999794
vt 2.099624 0.000613
vt 2.799528 0.000613
vt 2.799529 5.999794
vt -1.103055 -4.993815
vt -1.103054 1.005365
vt -1.802958 1.005365
vt -1.802959 -4.993815
vt 0.000000 0.750000
vt 0.000000 1.000000
vt 0.000000 0.375000
vt 0.000000 0.500000
vt -1.099780 2.250111
vt -1.099780 3.000008
vt -1.799685 3.000008
vt -1.799685 2.250111
vt 2.100123 3.749897
vt 2.100123 3.000000
vt 2.800027 3.000000
vt 2.800027 3.749897
vt 0.000000 2.250000
vt 6.000000 2.250000
vt 6.000000 3.000000
vt 0.000000 3.000000
vt 0.000000 0.000000
vt 6.000000 0.000000
vt 6.000000 1.500000
vt 0.000000 1.500000
vt -1.099780 0.000418
vt -1.099780 1.500213
vt -1.799685 1.500213
vt -1.799684 0.000418
vt 0.000000 0.250000
vt 2.100123 2.250102
vt 2.800027 2.250102
vt 2.100123 5.999590
vt 2.100123 4.499795
vt 2.800027 4.499795
vt 2.800027 5.999590
vt 0.000000 0.625000
vt -1.099780 3.749906
vt -1.799685 3.749906
vt 0.000000 3.750000
vt 6.000000 3.750000
vt 0.999933 1.500213
vt 0.999933 2.250111
vt 0.000410 3.000000
vt 0.000410 2.250103
vt 0.000410 4.499795
vt 0.000410 3.749897
vt -0.751180 0.002586
vt -0.001245 0.002586
vt -0.001245 9.274988
vt -0.423083 9.274990
vt 0.999933 3.749906
vt 0.999933 4.499804
vt 0.000410 5.999589
vt 0.000410 1.500205
vt 0.999933 0.000418
vt -0.746623 0.003642
vt 0.003311 0.003642
vt 0.003312 9.335041
vt -0.418527 9.335043
vt 0.996658 -4.993815
vt 0.996659 1.005365
vt -0.000088 5.999794
vt -0.000089 0.000614
vt 0.999933 5.999599
vt 0.000410 0.000410
vt -3.701680 3.846104
vt -0.326680 3.846104
vt -0.326680 4.689854
vt -3.701680 4.689853
vt -0.195504 3.845987
vt -0.195504 4.689621
vt -0.589200 4.689622
vt -0.589200 3.845987
vt -0.194026 3.845988
vt -0.194026 4.689623
vt -0.587722 4.689623
vt -0.587722 3.845988
vt 1.193837 4.689622
vt 1.193837 1.315083
vt 1.587533 1.315083
vt 1.587533 4.689623
vt -0.195505 1.315083
vt -0.195505 4.689620
vt -0.589201 4.689621
vt -0.589201 1.315084
vt -0.587721 2.580536
vt -0.587721 3.002354
vt -0.194025 2.580536
vt -0.194025 3.002355
vt -0.195504 2.580536
vt -0.195504 3.002355
vt -0.589200 3.002354
vt -0.589200 2.580536
vt -3.701680 2.580479
vt -0.326680 2.580479
vt -0.326680 3.002354
vt -3.701680 3.002354
vt -3.701680 1.314853
vt -0.326680 1.314853
vt -0.326680 2.158604
vt -3.701680 2.158604
vt -0.194025 1.315084
vt -0.194025 2.158719
vt -0.587722 2.158719
vt -0.587721 1.315084
vt -0.195504 3.424170
vt -0.589200 3.424171
vt -0.195505 1.315084
vt -0.195505 2.158718
vt -0.589201 2.158718
vt -0.587721 3.424171
vt -0.587721 3.845988
vt -0.194025 3.424171
vt -0.194025 3.845988
vt -3.701680 3.424229
vt -0.326680 3.424228
vt -0.326680 3.424229
vt -0.194025 3.002353
vt -0.195504 2.158719
vt -0.195505 2.580536
vt -0.589201 2.580536
vt -0.589200 2.158719
vt -0.195504 3.002353
vt -0.195504 3.424171
vt -3.701680 2.158603
vt -0.326680 2.158603
vt -0.587721 2.158719
vt 0.987063 2.158719
vt 0.987063 2.580536
vt -0.194026 2.580536
vt -0.194026 2.158719
vt 0.985584 2.158718
vt 0.985584 2.580535
vt -0.195505 2.158719
vt 0.987063 3.002354
vt 0.987063 3.424171
vt -0.194026 3.424171
vt -0.194026 3.002354
vt 0.987063 3.424170
vt 0.987063 3.845987
vt 0.985584 1.315084
vt 0.985584 2.158719
vt 0.985584 3.424171
vt 0.985584 3.845988
vt -0.195504 3.845988
vt -0.195505 3.424171
vt 0.987063 1.315084
vt -0.194026 1.315084
vt 0.985583 1.315084
vt 0.985584 4.689622
vt -0.195505 4.689623
vt 0.012748 4.689622
vt 0.012748 1.315084
vt 1.193836 1.315084
vt 0.987063 3.845989
vt 0.987063 4.689624
vt -0.194026 3.845989
vt 0.985584 4.689623
vt -0.195504 4.689623
vt -1.102800 0.002650
vt 0.996985 0.002650
vt 0.984487 9.314196
vt -0.196642 9.314196
vt 0.753246 0.003642
vt 0.425150 9.335043
vt 0.003312 9.335042
vt 0.748690 0.002586
vt 0.420593 9.274988
vt 0.002455 0.003705
vt 2.102241 0.003705
vt 1.196083 9.315250
vt 0.014954 9.315252
vt 5.999400 5.999399
vt 0.000601 5.999400
vt 0.000600 0.000601
vt 5.999399 0.000600
vt 0.300606 -0.685991
vt 3.674932 -0.685991
vt 3.674932 2.688334
vt 0.300606 2.688334
s 0
usemtl Material.001
f 23/1/1 21/2/1 4/3/1 3/4/1
f 43/5/2 37/6/2 6/7/2 20/8/2
f 45/9/3 39/10/3 7/11/3 24/12/3
f 39/13/4 36/14/4 8/15/4 7/16/4
f 37/17/5 38/18/5 5/19/5 6/20/5
f 24/21/6 7/22/6 10/22/6 25/21/6
f 34/23/6 13/24/6 15/24/6 35/23/6
f 49/25/3 40/26/3 13/27/3 34/28/3
f 47/29/2 41/30/2 14/31/2 30/32/2
f 33/33/1 31/34/1 12/35/1 11/36/1
f 1/37/7 2/38/7 19/39/7 16/40/7
f 38/41/3 42/42/3 17/43/3 5/44/3
f 5/37/6 17/45/6 18/45/6 9/37/6
f 48/46/2 43/5/2 20/8/2 32/47/2
f 36/48/2 44/49/2 22/50/2 8/51/2
f 27/52/6 24/21/6 25/21/6 28/52/6
f 46/53/3 45/9/3 24/12/3 27/54/3
f 26/55/1 29/56/1 21/2/1 23/1/1
f 11/36/1 12/35/1 29/56/1 26/55/1
f 40/26/3 46/53/3 27/54/3 13/27/3
f 13/24/6 27/52/6 28/52/6 15/24/6
f 44/49/2 47/29/2 30/32/2 22/50/2
f 41/30/2 48/46/2 32/47/2 14/31/2
f 16/40/1 19/39/1 31/34/1 33/33/1
f 42/42/3 49/25/3 34/28/3 17/43/3
f 17/45/6 34/23/6 35/23/6 18/45/6
f 16/57/3 33/58/3 49/25/3 42/42/3
f 12/59/2 31/60/2 48/46/2 41/30/2
f 21/61/2 29/62/2 47/29/2 44/49/2
f 33/63/8 11/64/8 100/65/8 101/66/8
f 26/67/3 23/68/3 45/9/3 46/53/3
f 4/69/2 21/61/2 44/49/2 36/48/2
f 31/60/2 19/70/2 43/5/2 48/46/2
f 1/71/9 16/57/9 42/42/9 38/41/9
f 29/62/2 12/59/2 41/30/2 47/29/2
f 46/72/10 40/73/10 102/74/10 103/75/10
f 2/76/11 1/77/11 38/18/11 37/17/11
f 3/78/4 4/79/4 36/14/4 39/13/4
f 23/68/3 3/80/3 39/10/3 45/9/3
f 19/70/2 2/81/2 37/6/2 43/5/2
f 72/82/1 70/83/1 53/84/1 52/85/1
f 92/86/2 86/87/2 55/88/2 69/89/2
f 94/90/3 88/91/3 56/92/3 73/93/3
f 88/94/4 85/95/4 57/96/4 56/97/4
f 86/98/5 87/99/5 54/100/5 55/101/5
f 73/93/6 56/92/6 59/92/6 74/93/6
f 83/102/6 62/103/6 64/103/6 84/102/6
f 98/104/3 89/105/3 62/103/3 83/102/3
f 96/106/2 90/107/2 63/108/2 79/109/2
f 82/110/1 80/111/1 61/112/1 60/113/1
f 50/114/1 51/115/1 68/116/1 65/117/1
f 87/118/3 91/119/3 66/120/3 54/121/3
f 54/121/6 66/120/6 67/120/6 58/121/6
f 97/122/2 92/86/2 69/89/2 81/123/2
f 85/124/2 93/125/2 71/126/2 57/101/2
f 76/127/6 73/128/6 74/128/6 77/127/6
f 95/129/3 94/130/3 73/128/3 76/127/3
f 75/131/1 78/132/1 70/83/1 72/82/1
f 60/113/1 61/112/1 78/133/1 75/131/1
f 89/134/3 95/129/3 76/127/3 62/103/3
f 62/103/6 76/127/6 77/127/6 64/103/6
f 93/135/2 96/136/2 79/137/2 71/138/2
f 90/139/2 97/140/2 81/123/2 63/108/2
f 65/141/1 68/142/1 80/111/1 82/110/1
f 91/119/3 98/104/3 83/102/3 66/143/3
f 66/143/6 83/102/6 84/102/6 67/143/6
f 65/144/3 82/145/3 98/146/3 91/147/3
f 70/148/2 78/149/2 96/136/2 93/150/2
f 60/151/3 75/152/3 95/153/3 89/154/3
f 75/155/3 72/156/3 94/90/3 95/153/3
f 53/157/2 70/158/2 93/150/2 85/124/2
f 80/159/2 68/160/2 92/161/2 97/162/2
f 50/163/3 65/144/3 91/147/3 87/164/3
f 82/145/3 60/151/3 89/154/3 98/146/3
f 51/165/5 50/166/5 87/167/5 86/124/5
f 52/168/4 53/169/4 85/170/4 88/94/4
f 72/171/3 52/172/3 88/91/3 94/173/3
f 68/160/2 51/174/2 86/175/2 92/161/2
f 49/176/12 33/177/12 101/178/12 104/179/12
f 40/73/10 49/180/10 104/181/10 102/182/10
f 11/64/8 26/183/8 99/184/8 100/65/8
f 26/185/13 46/186/13 103/187/13 99/188/13
f 6/20/4 5/19/4 105/19/4 106/20/4
f 106/20/4 105/19/4 107/19/4 108/20/4
f 108/189/14 107/190/14 109/191/14 110/192/14
f 8/51/6 22/50/6 112/50/6 111/51/6
f 8/51/4 111/51/4 114/51/4 113/51/4
f 57/101/6 71/126/6 116/126/6 115/101/6
f 56/97/4 57/96/4 118/96/4 117/97/4
f 117/193/14 118/194/14 120/195/14 119/196/14
