# Blender 4.1.1
# www.blender.org
mtllib level1test1.mtl
o Plane
v 0.013447 0.000215 0.009282
v 6.000000 0.000000 0.000000
v 0.000000 -0.000000 -6.000000
v 6.000000 -0.000000 -6.000000
v 0.000000 2.800000 -0.000000
v 6.000000 2.800000 -0.000000
v 0.000000 2.799999 -6.000000
v 6.000000 2.799999 -6.000000
v 0.000000 2.800000 -0.000000
v 0.000000 2.799999 -6.000000
v 0.000000 -0.000000 -3.000000
v 6.000000 -0.000000 -3.000000
v 0.000000 2.800000 -3.000000
v 6.000000 2.800000 -3.000000
v 0.000000 2.800000 -3.000000
v 0.000000 -0.000000 -1.500000
v 0.000000 2.800000 -1.500000
v 0.000000 2.800000 -1.500000
v 6.000000 -0.000000 -1.500000
v 6.000000 2.800000 -1.500000
v 6.000000 -0.000000 -4.500000
v 6.000000 2.800000 -4.500000
v 0.000000 -0.000000 -4.500000
v 0.000000 2.800000 -4.500000
v 0.000000 2.800000 -4.500000
v 0.000000 -0.000000 -3.750000
v 0.000000 2.800000 -3.750000
v 0.000000 2.800000 -3.750000
v 6.000000 -0.000000 -3.750000
v 6.000000 2.800000 -3.750000
v 6.000000 -0.000000 -2.250000
v 6.000000 2.800000 -2.250000
v 0.000000 -0.000000 -2.250000
v 0.000000 2.800000 -2.250000
v 0.000000 2.800000 -2.250000
v 0.000000 2.100000 -0.000000
v 0.000000 2.099999 -6.000000
v 0.000000 2.100000 -3.000000
v 0.000000 2.100000 -1.500000
v 0.000000 2.100000 -4.500000
v 0.000000 2.100000 -3.750000
v 0.000000 2.100000 -2.250000
v -12.687501 0.012500 -1.312500
v -9.312501 0.012500 -1.312500
v -12.687501 0.012500 -4.687500
v -9.312501 0.012500 -4.687500
v -12.687501 1.587500 -1.312500
v -9.312501 1.587500 -1.312500
v -12.687501 1.587500 -4.687500
v -9.312501 1.587500 -4.687500
v -12.687501 1.587500 -1.312500
v -12.687501 1.587500 -4.687500
v -12.687501 0.012500 -3.000000
v -9.312501 0.012500 -3.000000
v -12.687501 1.587500 -3.000000
v -9.312501 1.587500 -3.000000
v -12.687501 1.587500 -3.000000
v -12.687501 0.012500 -2.156250
v -12.687501 1.587500 -2.156250
v -12.687501 1.587500 -2.156250
v -9.312501 0.012500 -2.156250
v -9.312501 1.587500 -2.156250
v -9.312501 0.012500 -3.843750
v -9.312501 1.587500 -3.843750
v -12.687501 0.012500 -3.843750
v -12.687501 1.587500 -3.843750
v -12.687501 1.587500 -3.843750
v -12.687501 0.012500 -3.421875
v -12.687501 1.587500 -3.421875
v -12.687501 1.587500 -3.421875
v -9.312501 0.012500 -3.421875
v -9.312501 1.587500 -3.421875
v -9.312501 0.012500 -2.578125
v -9.312501 1.587500 -2.578125
v -12.687501 0.012500 -2.578125
v -12.687501 1.587500 -2.578125
v -12.687501 1.587500 -2.578125
v -9.312501 1.193750 -4.687500
v -9.312501 1.193750 -1.312500
v -12.687501 1.193750 -1.312500
v -12.687501 1.193750 -4.687500
v -12.687501 1.193750 -3.000000
v -9.312501 1.193750 -3.000000
v -12.687501 1.193750 -2.156250
v -9.312501 1.193750 -2.156250
v -9.312501 1.193750 -3.843750
v -12.687501 1.193750 -3.843750
v -12.687501 1.193750 -3.421875
v -9.312501 1.193750 -3.421875
v -9.312501 1.193750 -2.578125
v -12.687501 1.193750 -2.578125
v -9.312501 0.012500 -3.421875
v -9.312501 0.012500 -3.000000
v -9.312501 0.012500 -2.578125
v -9.312501 1.193750 -3.000000
v -9.312501 1.193750 -3.421875
v -9.312501 1.193750 -2.578125
v 0.000000 2.800000 -0.000000
v 6.000000 2.800000 -0.000000
v 0.000000 2.800000 -0.000000
v 6.000000 2.800000 -0.000000
v 6.000000 0.000000 4.000000
v 0.013447 0.000215 4.009283
v 6.000000 2.799999 -6.000000
v 6.000000 2.800000 -4.500000
v 6.000000 2.799999 -6.000000
v 6.000000 2.799999 -6.000000
v 0.000000 2.800000 4.000000
v 6.000000 2.800000 4.000000
v 6.000000 2.100000 4.000000
v 0.000000 2.100000 4.000000
v 0.000000 -0.000000 -10.000000
v 6.000000 -0.000000 -10.000000
v 0.000000 2.799999 -10.000000
v 6.000000 2.799999 -10.000000
v 6.000000 2.099999 -10.000000
v 0.000000 2.099999 -10.000000
v 16.000000 2.800000 -3.000000
v 16.000000 2.800000 -2.250000
v 16.000000 -0.000000 -4.500000
v 16.000000 -0.000000 -3.750000
v 16.000000 -0.000000 -1.500000
v 16.000000 -0.000000 -2.250000
v 16.000000 2.800000 -0.000000
v 16.000000 2.800000 4.000000
v 16.000000 2.100000 -0.000000
v 16.000000 2.100000 -1.500000
v 16.000000 2.100000 -4.500000
v 16.000000 2.100000 -3.000000
v 16.000000 2.100000 -3.750000
v 16.000000 2.100000 -2.250000
v 16.000000 2.800000 -4.500000
v 16.000000 2.800000 -3.750000
v 16.000000 -0.000000 -3.000000
v 16.000000 0.000000 0.000000
v 16.000000 2.800000 -1.500000
v 16.000000 -0.000000 -6.000000
v 16.000000 2.799999 -6.000000
v 16.000000 2.099999 -6.000000
v 16.000000 2.100000 4.000000
v 16.000000 0.000000 4.000000
v 16.000000 2.799999 -10.000000
v 16.000000 2.099999 -10.000000
v 16.000000 -0.000000 -10.000000
v 0.013440 -1.999785 0.009283
v 5.999993 -2.000000 0.000000
v -0.000007 -2.000000 -6.000000
v 5.979001 -2.000000 -6.013737
v 5.999993 -2.000000 -4.500000
v 5.999993 -2.000000 -3.750000
v 5.999993 -2.000000 -1.500000
v 5.999993 -2.000000 -2.250000
v 15.999992 -2.000000 -10.000000
v 5.999993 -2.000000 -10.000000
v 15.999992 -2.000000 -6.000000
v 5.999993 -2.000000 -3.000000
v 15.999992 -2.000000 -3.000000
v 15.999992 -2.000000 -2.250000
v 15.999992 -2.000000 -4.500000
v 15.999992 -2.000000 -3.750000
v 15.999992 -2.000000 4.000000
v 5.999993 -2.000000 4.000000
v 15.999992 -2.000000 -1.500000
v 15.999992 -2.000000 0.000000
v 0.013440 -1.999785 4.009283
v -0.000007 -2.000000 -10.000000
v 0.000000 2.800000 -0.000000
v 0.000000 2.800000 -0.000000
v 0.000000 2.799999 -6.000000
v 6.000000 2.799999 -6.000000
v 0.000000 2.799999 -6.000000
v 0.000000 2.799999 -6.000000
v 0.000000 2.799999 -0.000000
v 6.000000 2.799999 -0.000000
vn -0.0000 1.0000 -0.0000
vn -0.0000 -1.0000 -0.0000
vn 1.0000 -0.0000 -0.0000
vn -0.0000 -0.0000 -0.0000
vn -0.0000 -0.0000 1.0000
vn -0.0000 1.0000 -0.0001
vn -1.0000 -0.0000 -0.0000
vn 0.0013 1.0000 -0.0000
vn 1.0000 0.0032 -0.0045
vn -0.0000 -0.0000 -1.0000
vn 0.0969 -0.9953 -0.0000
vn 0.0352 -0.0000 -0.9994
vn 0.0352 -0.0000 0.9994
vn -0.0008 -0.0022 -1.0000
vn 1.0000 0.0064 -0.0000
vn -0.0016 -0.0000 -1.0000
vn 0.0016 -0.0000 1.0000
vn -0.0011 0.0034 -1.0000
vn 1.0000 -0.0052 -0.0070
vt 0.000000 4.500000
vt 6.000000 4.500000
vt 6.000000 6.000000
vt 0.000000 6.000000
vt 6.250328 9.999625
vt 5.500468 9.999625
vt 5.500468 0.001495
vt 6.250328 0.001495
vt -1.099780 4.499804
vt -1.099780 5.999599
vt -1.799685 5.999599
vt -1.799685 4.499804
vt 4.000749 9.999624
vt 4.000748 0.001495
vt 0.000440 0.892576
vt 0.000440 0.190253
vt 4.013714 0.190252
vt 4.013714 0.892575
vt 0.000000 0.750000
vt 0.000000 1.000000
vt 0.000000 0.375000
vt 0.000000 0.500000
vt -1.099780 2.250111
vt -1.099780 3.000008
vt -1.799685 3.000008
vt -1.799685 2.250111
vt 4.800349 9.999777
vt 4.100426 9.999777
vt 4.100426 0.000877
vt 4.800349 0.000877
vt 0.000000 2.250000
vt 6.000000 2.250000
vt 6.000000 3.000000
vt 0.000000 3.000000
vt 0.000000 0.000000
vt 6.000000 0.000000
vt 6.000000 1.500000
vt 0.000000 1.500000
vt -1.099780 0.000418
vt -1.099780 1.500213
vt -1.799685 1.500213
vt -1.799684 0.000418
vt 0.000000 0.250000
vt 3.000849 8.499825
vt 3.000849 7.749912
vt 5.000615 7.749912
vt 5.000615 8.499825
vt 3.000849 6.250087
vt 3.000849 5.500175
vt 5.000615 5.500175
vt 5.000615 6.250087
vt 0.000000 0.625000
vt -1.099780 3.749906
vt -1.799685 3.749906
vt 0.000000 3.750000
vt 6.000000 3.750000
vt 8.499907 9.999625
vt 7.750047 9.999625
vt 7.750047 0.001495
vt 8.499907 0.001495
vt 3.000850 4.000350
vt 5.000615 4.000351
vt 0.999933 1.500213
vt 0.999933 2.250111
vt 0.009753 2.999372
vt 4.023027 2.999372
vt 4.023028 5.006009
vt 0.009754 5.006009
vt 9.999626 9.999625
vt 9.999626 0.001495
vt -0.751180 0.002586
vt -0.001245 0.002586
vt -0.001245 9.274988
vt -0.423083 9.274990
vt 0.999933 3.749906
vt 0.999933 4.499804
vt 2.000116 3.749913
vt 2.000116 4.499826
vt 0.000347 4.499826
vt 0.000347 3.749913
vt 2.000116 2.250086
vt 2.000116 3.000000
vt 0.000347 3.000000
vt 0.000347 2.250087
vt 0.999933 0.000418
vt 2.002338 5.991817
vt 4.103872 5.991817
vt 4.103872 15.999123
vt 2.002337 15.999122
vt -0.746623 0.003642
vt 0.003311 0.003642
vt 0.003312 9.335041
vt -0.418527 9.335043
vt 9.999627 15.998503
vt 13.998878 9.999624
vt 13.998878 15.998503
vt 0.000440 4.803688
vt 0.000440 4.101676
vt 4.011934 4.101676
vt 4.011934 4.803688
vt 0.999933 5.999599
vt 4.011934 1.995642
vt 0.000439 1.995642
vt 0.000439 -0.010106
vt 4.011934 -0.010106
vt -3.701680 3.846104
vt -0.326680 3.846104
vt -0.326680 4.689854
vt -3.701680 4.689853
vt -0.195504 3.845987
vt -0.195504 4.689621
vt -0.589200 4.689622
vt -0.589200 3.845987
vt -0.194026 3.845988
vt -0.194026 4.689623
vt -0.587722 4.689623
vt -0.587722 3.845988
vt 1.193837 4.689622
vt 1.193837 1.315083
vt 1.587533 1.315083
vt 1.587533 4.689623
vt -0.195505 1.315083
vt -0.195505 4.689620
vt -0.589201 4.689621
vt -0.589201 1.315084
vt -0.587721 2.580536
vt -0.587721 3.002354
vt -0.194025 2.580536
vt -0.194025 3.002355
vt -0.195504 2.580536
vt -0.195504 3.002355
vt -0.589200 3.002354
vt -0.589200 2.580536
vt -3.701680 2.580479
vt -0.326680 2.580479
vt -0.326680 3.002354
vt -3.701680 3.002354
vt -3.701680 1.314853
vt -0.326680 1.314853
vt -0.326680 2.158604
vt -3.701680 2.158604
vt -0.194025 1.315084
vt -0.194025 2.158719
vt -0.587722 2.158719
vt -0.587721 1.315084
vt -0.195504 3.424170
vt -0.589200 3.424171
vt -0.195505 1.315084
vt -0.195505 2.158718
vt -0.589201 2.158718
vt -0.587721 3.424171
vt -0.587721 3.845988
vt -0.194025 3.424171
vt -0.194025 3.845988
vt -3.701680 3.424229
vt -0.326680 3.424228
vt -0.326680 3.424229
vt -0.194025 3.002353
vt -0.195504 2.158719
vt -0.195505 2.580536
vt -0.589201 2.580536
vt -0.589200 2.158719
vt -0.195504 3.002353
vt -0.195504 3.424171
vt -3.701680 2.158603
vt -0.326680 2.158603
vt -0.587721 2.158719
vt 0.987063 2.158719
vt 0.987063 2.580536
vt -0.194026 2.580536
vt -0.194026 2.158719
vt 0.985584 2.158718
vt 0.985584 2.580535
vt -0.195505 2.158719
vt 0.987063 3.002354
vt 0.987063 3.424171
vt -0.194026 3.424171
vt -0.194026 3.002354
vt 0.987063 3.424170
vt 0.987063 3.845987
vt 0.985584 1.315084
vt 0.985584 2.158719
vt 0.985584 3.424171
vt 0.985584 3.845988
vt -0.195504 3.845988
vt -0.195505 3.424171
vt 0.987063 1.315084
vt -0.194026 1.315084
vt 0.985583 1.315084
vt 0.985584 4.689622
vt -0.195505 4.689623
vt 0.012748 4.689622
vt 0.012748 1.315084
vt 1.193836 1.315084
vt 0.987063 3.845989
vt 0.987063 4.689624
vt -0.194026 3.845989
vt 0.985584 4.689623
vt -0.195504 4.689623
vt -1.102800 0.002650
vt 0.996985 0.002650
vt 0.984487 9.314196
vt -0.196642 9.314196
vt 0.753246 0.003642
vt 0.425150 9.335043
vt 0.003312 9.335042
vt 0.748690 0.002586
vt 0.420593 9.274988
vt 0.002455 0.003705
vt 2.102241 0.003705
vt 1.196083 9.315250
vt 0.014954 9.315252
vt -1.802959 -4.993815
vt -1.802958 1.005365
vt -1.103055 -4.993815
vt -1.103054 1.005365
vt 0.996658 -4.993815
vt 0.996659 1.005365
vt 2.800027 5.999590
vt 2.800027 4.499795
vt 7.000187 9.999625
vt 7.000187 0.001495
vt 3.000849 13.999178
vt 3.000849 9.999647
vt 5.000615 9.999647
vt 5.000615 13.999178
vt 0.001496 9.999625
vt 0.001496 0.001495
vt 2.099625 5.999794
vt 2.099624 0.000613
vt 2.799528 0.000613
vt 2.799529 5.999794
vt -0.000088 5.999794
vt -0.000089 0.000614
vt 2.000116 1.500173
vt 0.000347 1.500173
vt 4.000749 15.998503
vt 0.001497 15.998504
vt 4.804384 5.991817
vt 4.804384 15.999123
vt 2.100123 1.500205
vt 2.100123 0.000410
vt 2.800027 0.000410
vt 2.800027 1.500205
vt 0.901096 4.000350
vt 0.201177 4.000350
vt 0.201177 0.000820
vt 0.901095 0.000819
vt 2.100123 3.749897
vt 2.100123 3.000000
vt 2.800027 3.000000
vt 2.800027 3.749897
vt 2.100123 2.250102
vt 2.800027 2.250102
vt 2.100123 5.999590
vt 2.100123 4.499795
vt 0.000410 3.000000
vt 0.000410 2.250103
vt 0.000410 4.499795
vt 0.000410 3.749897
vt 0.000410 5.999589
vt 0.000410 1.500205
vt 0.000410 0.000410
vt 0.201177 9.999647
vt 0.901095 9.999647
vt 0.901095 13.999178
vt 0.201177 13.999178
vt 3.000850 0.000819
vt 2.000657 9.999777
vt 2.000657 0.000877
vt 0.000877 9.999784
vt 0.000877 0.000885
vt 13.998878 0.001494
vt 6.250329 6.000374
vt 7.000187 6.000374
vt 7.000187 15.998502
vt 6.250329 15.998503
vt 4.000750 6.000374
vt 5.500469 6.000374
vt 5.500468 15.998503
vt 4.000749 15.998502
vt 0.001498 6.000374
vt 0.001497 15.998503
vt 7.750047 6.000375
vt 8.499907 6.000374
vt 8.499907 15.998503
vt 7.750047 15.998503
vt 9.999626 6.000375
vt 9.999626 15.998503
vt 10.008907 0.014942
vt 14.008159 0.014942
vt 13.998878 6.000374
vt 4.000750 0.001497
vt 0.001498 0.001497
vt 13.998878 15.998503
vt 3.000849 7.000000
vt 5.000615 7.000000
vt 2.002552 0.000884
vt 0.000876 5.991809
vt 0.001091 0.000877
vt 2.000658 15.999117
vt 0.000878 15.999124
vt 2.004584 0.000411
vt 2.004584 5.999653
vt 0.000347 5.999589
vt 0.000347 0.000346
vt 0.000877 15.999114
vt 2.000116 5.999653
vt 0.000347 5.999653
vt 5.000615 0.000820
vt 0.000347 5.999646
vt 0.000346 0.000346
vt 2.000113 0.000353
vt 2.000114 5.999653
vt 2.000115 0.000346
vt 0.000346 0.000346
vt 0.000600 0.000601
vt 5.999399 0.000600
vt 5.999400 5.999399
vt 0.000601 5.999400
s 0
usemtl Material.001
f 23/1/1 21/2/1 4/3/1 3/4/1
f 30/5/2 22/6/2 132/7/2 133/8/2
f 40/9/3 37/10/3 7/11/3 24/12/3
f 22/6/2 8/13/2 138/14/2 132/7/2
f 36/15/3 5/16/3 108/17/3 111/18/3
f 24/19/4 7/20/4 10/20/4 25/19/4
f 34/21/4 13/22/4 15/22/4 35/21/4
f 42/23/3 38/24/3 13/25/3 34/26/3
f 115/27/5 116/28/5 143/29/5 142/30/5
f 33/31/1 31/32/1 12/33/1 11/34/1
f 1/35/6 2/36/6 19/37/6 16/38/6
f 36/39/3 39/40/3 17/41/3 5/42/3
f 5/35/4 17/43/4 18/43/4 9/35/4
f 122/44/7 123/45/7 158/46/7 163/47/7
f 121/48/7 120/49/7 159/50/7 160/51/7
f 27/52/4 24/19/4 25/19/4 28/52/4
f 41/53/3 40/9/3 24/12/3 27/54/3
f 26/55/1 29/56/1 21/2/1 23/1/1
f 11/34/1 12/33/1 29/56/1 26/55/1
f 38/24/3 41/53/3 27/54/3 13/25/3
f 13/22/4 27/52/4 28/52/4 15/22/4
f 20/57/2 32/58/2 119/59/2 136/60/2
f 120/49/7 137/61/7 155/62/7 159/50/7
f 16/38/1 19/37/1 31/32/1 33/31/1
f 39/40/3 42/23/3 34/26/3 17/41/3
f 17/43/4 34/21/4 35/21/4 18/43/4
f 16/63/3 33/64/3 42/23/3 39/40/3
f 1/65/3 103/66/3 165/67/3 145/68/3
f 6/69/2 20/57/2 136/60/2 124/70/2
f 33/71/8 11/72/8 93/73/8 94/74/8
f 26/75/3 23/76/3 40/9/3 41/53/3
f 31/77/3 19/78/3 151/79/3 152/80/3
f 29/81/3 12/82/3 156/83/3 150/84/3
f 1/85/9 16/63/9 39/40/9 36/39/9
f 102/86/10 110/87/10 140/88/10 141/89/10
f 41/90/11 38/91/11 95/92/11 96/93/11
f 5/94/2 6/69/2 109/95/2 108/96/2
f 7/97/3 37/98/3 117/99/3 114/100/3
f 23/76/3 3/101/3 37/10/3 40/9/3
f 112/102/3 3/103/3 147/104/3 166/105/3
f 65/106/1 63/107/1 46/108/1 45/109/1
f 85/110/7 79/111/7 48/112/7 62/113/7
f 87/114/3 81/115/3 49/116/3 66/117/3
f 81/118/5 78/119/5 50/120/5 49/121/5
f 79/122/10 80/123/10 47/124/10 48/125/10
f 66/117/4 49/116/4 52/116/4 67/117/4
f 76/126/4 55/127/4 57/127/4 77/126/4
f 91/128/3 82/129/3 55/127/3 76/126/3
f 89/130/7 83/131/7 56/132/7 72/133/7
f 75/134/1 73/135/1 54/136/1 53/137/1
f 43/138/1 44/139/1 61/140/1 58/141/1
f 80/142/3 84/143/3 59/144/3 47/145/3
f 47/145/4 59/144/4 60/144/4 51/145/4
f 90/146/7 85/110/7 62/113/7 74/147/7
f 78/148/7 86/149/7 64/150/7 50/125/7
f 69/151/4 66/152/4 67/152/4 70/151/4
f 88/153/3 87/154/3 66/152/3 69/151/3
f 68/155/1 71/156/1 63/107/1 65/106/1
f 53/137/1 54/136/1 71/157/1 68/155/1
f 82/158/3 88/153/3 69/151/3 55/127/3
f 55/127/4 69/151/4 70/151/4 57/127/4
f 86/159/7 89/160/7 72/161/7 64/162/7
f 83/163/7 90/164/7 74/147/7 56/132/7
f 58/165/1 61/166/1 73/135/1 75/134/1
f 84/143/3 91/128/3 76/126/3 59/167/3
f 59/167/4 76/126/4 77/126/4 60/167/4
f 58/168/3 75/169/3 91/170/3 84/171/3
f 63/172/7 71/173/7 89/160/7 86/174/7
f 53/175/3 68/176/3 88/177/3 82/178/3
f 68/179/3 65/180/3 87/114/3 88/177/3
f 46/181/7 63/182/7 86/174/7 78/148/7
f 73/183/7 61/184/7 85/185/7 90/186/7
f 43/187/3 58/168/3 84/171/3 80/188/3
f 75/169/3 53/175/3 82/178/3 91/170/3
f 44/189/10 43/190/10 80/191/10 79/148/10
f 45/192/5 46/193/5 78/194/5 81/118/5
f 65/195/3 45/196/3 81/115/3 87/197/3
f 61/184/7 44/198/7 79/199/7 85/185/7
f 42/200/12 33/201/12 94/202/12 97/203/12
f 38/91/11 42/204/11 97/205/11 95/206/11
f 11/72/8 26/207/8 92/208/8 93/73/8
f 26/209/13 41/210/13 96/211/13 92/212/13
f 6/213/5 5/214/5 98/214/5 99/213/5
f 110/215/10 111/216/10 108/214/10 109/213/10
f 102/217/14 103/218/14 111/216/14 110/215/14
f 8/219/4 22/220/4 105/220/4 104/219/4
f 8/219/5 104/219/5 107/219/5 106/219/5
f 1/65/15 36/15/15 111/18/15 103/66/15
f 14/221/2 30/5/2 133/8/2 118/222/2
f 141/223/7 135/224/7 164/225/7 161/226/7
f 8/13/2 115/227/2 142/228/2 138/14/2
f 117/229/5 116/230/5 115/231/5 114/232/5
f 112/233/5 113/234/5 116/230/5 117/229/5
f 21/235/3 29/81/3 150/84/3 149/236/3
f 8/13/2 7/237/2 114/238/2 115/227/2
f 110/87/10 109/239/10 125/240/10 140/88/10
f 37/98/3 3/103/3 112/102/3 117/99/3
f 127/241/7 126/242/7 124/243/7 136/244/7
f 139/245/7 138/246/7 142/247/7 143/248/7
f 130/249/7 129/250/7 118/251/7 133/252/7
f 131/253/7 127/241/7 136/244/7 119/254/7
f 139/255/7 128/256/7 132/220/7 138/219/7
f 128/256/7 130/249/7 133/252/7 132/220/7
f 129/250/7 131/253/7 119/254/7 118/251/7
f 134/257/7 123/258/7 131/253/7 129/250/7
f 120/259/7 121/260/7 130/249/7 128/256/7
f 137/261/7 120/259/7 128/256/7 139/255/7
f 123/258/7 122/262/7 127/241/7 131/253/7
f 121/260/7 134/257/7 129/250/7 130/249/7
f 122/262/7 135/263/7 126/242/7 127/241/7
f 124/264/7 126/265/7 140/266/7 125/267/7
f 126/265/7 135/224/7 141/223/7 140/266/7
f 137/61/7 139/245/7 143/248/7 144/268/7
f 116/28/5 113/269/5 144/270/5 143/29/5
f 144/270/5 113/269/5 154/271/5 153/272/5
f 109/95/2 6/69/2 124/70/2 125/273/2
f 32/58/2 14/221/2 118/222/2 119/59/2
f 150/274/1 156/275/1 157/276/1 160/277/1
f 148/278/1 149/279/1 159/280/1 155/281/1
f 154/282/1 148/278/1 155/281/1 153/283/1
f 152/284/1 151/285/1 163/286/1 158/287/1
f 156/275/1 152/284/1 158/287/1 157/276/1
f 149/279/1 150/274/1 160/277/1 159/280/1
f 151/285/1 146/288/1 164/289/1 163/286/1
f 146/288/1 145/290/1 165/291/1 162/292/1
f 147/293/1 148/278/1 154/282/1 166/294/1
f 146/288/1 162/292/1 161/295/1 164/289/1
f 134/296/7 121/48/7 160/51/7 157/297/7
f 103/298/16 102/86/16 162/299/16 165/300/16
f 113/269/5 112/301/5 166/302/5 154/271/5
f 2/303/17 1/304/17 145/305/17 146/306/17
f 123/45/7 134/296/7 157/297/7 158/46/7
f 102/86/10 141/89/10 161/307/10 162/299/10
f 19/78/3 2/308/3 146/309/3 151/79/3
f 137/61/7 144/268/7 153/310/7 155/62/7
f 3/311/18 4/312/18 148/313/18 147/314/18
f 12/82/3 31/77/3 152/80/3 156/83/3
f 135/224/7 122/44/7 163/47/7 164/225/7
f 4/315/19 21/235/19 149/236/19 148/316/19
f 5/35/10 9/35/5 168/35/5 167/35/10
f 7/35/5 8/35/5 170/35/5 169/35/5
f 10/20/10 7/20/5 171/20/5 172/20/10
f 169/317/2 170/318/2 174/319/2 173/320/2
l 101 99
l 98 100
