# Blender 4.1.1
# www.blender.org
mtllib test 3 walls3.mtl
o Plane.001
v -18.000000 0.000000 0.000000
v -2.000000 0.000000 0.000000
v -18.000000 0.000000 -16.000000
v -2.000000 0.000000 -16.000000
v -18.000000 0.000000 -8.000000
v -2.000000 0.000000 -8.000000
v -10.000000 0.000000 0.000000
v -10.000000 0.000000 -16.000000
v -10.000000 0.000000 -8.000000
v -18.000000 0.000000 -4.000000
v -2.000000 0.000000 -4.000000
v -10.000000 0.000000 -4.000000
v -2.000000 0.000000 -12.000000
v -18.000000 0.000000 -12.000000
v -10.000000 0.000000 -12.000000
v -18.000000 0.000000 -10.000000
v -2.000000 0.000000 -10.000000
v -10.000000 0.000000 -10.000000
v -2.000000 0.000000 -6.000000
v -10.000000 0.000000 -6.000000
v -18.000000 0.000000 -6.000000
v -18.000000 0.000000 -9.000000
v -2.000000 0.000000 -9.000000
v -10.000000 0.000000 -9.000000
v -2.000000 0.000000 -7.000000
v -10.000000 0.000000 -7.000000
v -18.000000 0.000000 -7.000000
v 0.000000 0.000000 0.000000
v 16.000000 0.000000 0.000000
v 0.000000 0.000000 -16.000000
v 16.000000 0.000000 -16.000000
v 0.000000 0.000000 -8.000000
v 16.000000 0.000000 -8.000000
v 0.000000 3.000000 -8.000000
v 8.000000 0.000000 0.000000
v 8.000000 0.000000 -16.000000
v 8.000000 0.000000 -8.000000
v 0.000000 0.000000 -4.000000
v 16.000000 0.000000 -4.000000
v 8.000000 0.000000 -4.000000
v 16.000000 0.000000 -12.000000
v 0.000000 0.000000 -12.000000
v 8.000000 0.000000 -12.000000
v 0.000000 0.000000 -10.000000
v 16.000000 0.000000 -10.000000
v 8.000000 0.000000 -10.000000
v 16.000000 0.000000 -6.000000
v 8.000000 0.000000 -6.000000
v 0.000000 0.000000 -6.000000
v 0.000000 0.000000 -9.000000
v 0.000000 3.000000 -9.000000
v 16.000000 0.000000 -9.000000
v 8.000000 0.000000 -9.000000
v 16.000000 0.000000 -7.000000
v 8.000000 0.000000 -7.000000
v 0.000000 0.000000 -7.000000
v 0.000000 3.000000 -7.000000
v -2.000000 0.000000 -9.000000
v -2.000000 0.000000 -8.000000
v -2.000000 3.000000 -9.000000
v -2.000000 3.000000 -8.000000
v -2.000000 0.000000 -7.000000
v -2.000000 3.000000 -7.000000
vn -0.0000 1.0000 -0.0000
vn -0.0000 -1.0000 -0.0000
vt 8.000379 4.000480
vt 0.001600 4.000803
vt 0.001599 0.001604
vt 8.000758 0.000959
vt 7.999999 8.999800
vt 0.001600 8.999802
vt 0.001600 8.000002
vt 7.999999 8.000000
vt 15.998398 8.999800
vt 15.998397 7.999999
vt 15.998396 4.000800
vt 15.998396 0.001601
vt 15.998398 15.998398
vt 8.000000 15.998400
vt 7.999999 11.999200
vt 15.998398 11.999199
vt 0.001601 15.998401
vt 0.001601 11.999201
vt 15.998396 6.000400
vt 8.000189 6.000240
vt 0.001600 6.000402
vt 8.000093 7.000120
vt 0.001600 7.000202
vt 15.998396 7.000199
vt 7.999999 9.999599
vt 15.998398 9.999599
vt 0.001601 9.999601
vt 1.999800 0.000200
vt 1.999800 1.000000
vt 0.000200 1.000000
vt 0.000200 0.000200
vt 1.999800 1.000000
vt 1.999800 1.999800
vt 0.000200 1.999800
vt 0.000200 1.000000
vt 1.999800 1.999800
vt 0.000200 1.999800
vt 1.999800 0.000200
vt 0.000200 0.000200
s 0
usemtl Material.002
f 15/1/1 13/2/1 4/3/1 8/4/1
f 26/5/1 25/6/1 6/7/1 9/8/1
f 27/9/1 26/5/1 9/8/1 5/10/1
f 14/11/1 15/1/1 8/4/1 3/12/1
f 1/13/1 7/14/1 12/15/1 10/16/1
f 7/14/1 2/17/1 11/18/1 12/15/1
f 16/19/1 18/20/1 15/1/1 14/11/1
f 18/20/1 17/21/1 13/2/1 15/1/1
f 24/22/1 23/23/1 17/21/1 18/20/1
f 22/24/1 24/22/1 18/20/1 16/19/1
f 10/16/1 12/15/1 20/25/1 21/26/1
f 12/15/1 11/18/1 19/27/1 20/25/1
f 5/10/1 9/8/1 24/22/1 22/24/1
f 9/8/1 6/7/1 23/23/1 24/22/1
f 21/26/1 20/25/1 26/5/1 27/9/1
f 20/25/1 19/27/1 25/6/1 26/5/1
usemtl Material.001
f 43/1/1 41/2/1 31/3/1 36/4/1
f 55/5/1 54/6/1 33/7/1 37/8/1
f 56/9/1 55/5/1 37/8/1 32/10/1
f 42/11/1 43/1/1 36/4/1 30/12/1
f 28/13/1 35/14/1 40/15/1 38/16/1
f 35/14/1 29/17/1 39/18/1 40/15/1
f 44/19/1 46/20/1 43/1/1 42/11/1
f 46/20/1 45/21/1 41/2/1 43/1/1
f 53/22/1 52/23/1 45/21/1 46/20/1
f 50/24/1 53/22/1 46/20/1 44/19/1
f 38/16/1 40/15/1 48/25/1 49/26/1
f 40/15/1 39/18/1 47/27/1 48/25/1
f 32/10/1 37/8/1 53/22/1 50/24/1
f 51/28/2 34/29/2 61/30/2 60/31/2
f 37/8/1 33/7/1 52/23/1 53/22/1
f 49/26/1 48/25/1 55/5/1 56/9/1
f 48/25/1 47/27/1 54/6/1 55/5/1
f 32/32/1 50/33/1 58/34/1 59/35/1
f 34/29/2 57/36/2 63/37/2 61/30/2
f 56/38/1 32/32/1 59/35/1 62/39/1
o Plane.002
v -18.000000 0.000000 0.000000
v -2.000000 0.000000 0.000000
v -18.000000 0.000000 -16.000000
v -2.000000 0.000000 -16.000000
v -18.000000 5.000000 0.000000
v -2.000000 5.000000 0.000000
v -18.000000 5.000000 -16.000000
v -2.000000 5.000000 -16.000000
v -2.000000 3.000000 -16.000000
v -2.000000 3.000000 0.000000
v -18.000000 3.000000 0.000000
v -18.000000 3.000000 -16.000000
v -18.000000 0.000000 -8.000000
v -18.000000 5.000000 -8.000000
v -2.000000 5.000000 -8.000000
v -18.000000 3.000000 -8.000000
v -2.000000 3.000000 -8.000000
v -10.000000 0.000000 0.000000
v -10.000000 0.000000 -16.000000
v -10.000000 5.000000 0.000000
v -10.000000 5.000000 -16.000000
v -10.000000 3.000000 0.000000
v -10.000000 3.000000 -16.000000
v -18.000000 0.000000 -4.000000
v -18.000000 5.000000 -4.000000
v -18.000000 3.000000 -4.000000
v -2.000000 0.000000 -4.000000
v -2.000000 5.000000 -4.000000
v -2.000000 3.000000 -4.000000
v -2.000000 0.000000 -12.000000
v -2.000000 5.000000 -12.000000
v -2.000000 3.000000 -12.000000
v -18.000000 0.000000 -12.000000
v -18.000000 5.000000 -12.000000
v -18.000000 3.000000 -12.000000
v -18.000000 0.000000 -10.000000
v -18.000000 5.000000 -10.000000
v -18.000000 3.000000 -10.000000
v -2.000000 0.000000 -10.000000
v -2.000000 5.000000 -10.000000
v -2.000000 3.000000 -10.000000
v -2.000000 0.000000 -6.000000
v -2.000000 5.000000 -6.000000
v -2.000000 3.000000 -6.000000
v -18.000000 0.000000 -6.000000
v -18.000000 5.000000 -6.000000
v -18.000000 3.000000 -6.000000
v -18.000000 0.000000 -9.000000
v -18.000000 5.000000 -9.000000
v -18.000000 3.000000 -9.000000
v -2.000000 0.000000 -9.000000
v -2.000000 5.000000 -9.000000
v -2.000000 3.000000 -9.000000
v -2.000000 0.000000 -7.000000
v -2.000000 5.000000 -7.000000
v -2.000000 3.000000 -7.000000
v -18.000000 0.000000 -7.000000
v -18.000000 5.000000 -7.000000
v -18.000000 3.000000 -7.000000
v 0.000000 0.000000 0.000000
v 16.000000 0.000000 0.000000
v 0.000000 0.000000 -16.000000
v 16.000000 0.000000 -16.000000
v 0.000000 5.000000 0.000000
v 16.000000 5.000000 0.000000
v 0.000000 5.000000 -16.000000
v 16.000000 5.000000 -16.000000
v 16.000000 3.000000 -16.000000
v 16.000000 3.000000 0.000000
v 0.000000 3.000000 0.000000
v 0.000000 3.000000 -16.000000
v 16.000000 0.000000 -8.000000
v 0.000000 5.000000 -8.000000
v 16.000000 5.000000 -8.000000
v 0.000000 3.000000 -8.000000
v 16.000000 3.000000 -8.000000
v 8.000000 0.000000 0.000000
v 8.000000 0.000000 -16.000000
v 8.000000 5.000000 0.000000
v 8.000000 5.000000 -16.000000
v 8.000000 3.000000 0.000000
v 8.000000 3.000000 -16.000000
v 0.000000 0.000000 -4.000000
v 0.000000 5.000000 -4.000000
v 0.000000 3.000000 -4.000000
v 16.000000 0.000000 -4.000000
v 16.000000 5.000000 -4.000000
v 16.000000 3.000000 -4.000000
v 16.000000 0.000000 -12.000000
v 16.000000 5.000000 -12.000000
v 16.000000 3.000000 -12.000000
v 0.000000 0.000000 -12.000000
v 0.000000 5.000000 -12.000000
v 0.000000 3.000000 -12.000000
v 0.000000 0.000000 -10.000000
v 0.000000 5.000000 -10.000000
v 0.000000 3.000000 -10.000000
v 16.000000 0.000000 -10.000000
v 16.000000 5.000000 -10.000000
v 16.000000 3.000000 -10.000000
v 16.000000 0.000000 -6.000000
v 16.000000 5.000000 -6.000000
v 16.000000 3.000000 -6.000000
v 0.000000 0.000000 -6.000000
v 0.000000 5.000000 -6.000000
v 0.000000 3.000000 -6.000000
v 0.000000 0.000000 -9.000000
v 0.000000 5.000000 -9.000000
v 0.000000 3.000000 -9.000000
v 16.000000 0.000000 -9.000000
v 16.000000 5.000000 -9.000000
v 16.000000 3.000000 -9.000000
v 16.000000 0.000000 -7.000000
v 16.000000 5.000000 -7.000000
v 16.000000 3.000000 -7.000000
v 0.000000 0.000000 -7.000000
v 0.000000 5.000000 -7.000000
v 0.000000 3.000000 -7.000000
v -2.000000 0.000000 -9.000000
v -2.000000 3.000000 -9.000000
v -2.000000 0.000000 -7.000000
v -2.000000 3.000000 -7.000000
vn -1.0000 -0.0000 -0.0000
vn 1.0000 -0.0000 -0.0000
vn -0.0000 -0.0000 1.0000
vn -0.0000 -0.0000 -1.0000
vt 12.001011 2.999937
vt 16.000505 2.999937
vt 16.000505 4.999684
vt 12.001011 4.999684
vt 12.001013 2.999937
vt 16.000507 2.999937
vt 16.000507 4.999684
vt 12.001013 4.999684
vt 8.001518 2.999937
vt 8.001518 4.999684
vt 8.001517 2.999937
vt 8.001517 4.999684
vt 8.001517 0.000316
vt 16.000505 0.000316
vt 8.000758 0.000959
vt 16.000507 0.000316
vt 12.001013 0.000316
vt 12.001011 0.000316
vt 7.001645 0.000316
vt 8.001518 0.000316
vt 7.001645 2.999937
vt 7.001645 4.999684
vt 7.001644 2.999937
vt 7.001644 4.999684
vt 0.002530 0.000316
vt 0.002530 2.999937
vt 0.002529 0.000316
vt 0.002529 2.999937
vt 0.002529 4.999684
vt 0.002530 4.999684
vt 4.002024 2.999937
vt 4.002024 4.999684
vt 4.002024 0.000316
vt 10.001265 0.000316
vt 10.001265 2.999937
vt 10.001265 4.999684
vt 4.002023 2.999937
vt 4.002023 4.999684
vt 4.002023 0.000316
vt 10.001266 0.000316
vt 10.001266 2.999937
vt 10.001266 4.999684
vt 9.001392 2.999937
vt 9.001392 4.999684
vt 9.001392 0.000316
vt 6.001770 2.999937
vt 6.001770 4.999684
vt 6.001770 0.000316
vt 9.001390 2.999937
vt 9.001390 4.999684
vt 9.001390 0.000316
vt 6.001771 2.999937
vt 6.001771 4.999684
vt 6.001771 0.000316
vt 7.001644 0.000316
vt 0.000693 2.999913
vt 0.000693 0.000086
vt 2.000577 0.000086
vt 2.000576 2.999913
vt 2.000577 0.000087
vt 2.000577 2.999913
vt 0.000693 0.000087
s 0
usemtl Material.002
f 92/40/3 73/41/3 69/42/3 91/43/3
f 98/44/4 75/45/4 70/46/4 97/47/4
f 86/48/5 72/45/5 71/46/5 84/49/5
f 85/50/6 74/41/6 68/42/6 83/51/6
f 81/52/6 64/53/6 74/41/6 85/50/6
f 82/54/5 67/55/5 72/45/5 86/48/5
f 96/56/4 66/55/4 75/45/4 98/44/4
f 90/57/3 65/53/3 73/41/3 92/40/3
f 120/58/4 76/59/4 79/48/4 122/60/4
f 122/60/4 79/48/4 77/49/4 121/61/4
f 116/62/3 80/50/3 78/51/3 115/63/3
f 66/64/5 82/54/5 86/48/5 75/65/5
f 65/66/6 81/52/6 85/50/6 73/67/6
f 73/67/6 85/50/6 83/51/6 69/68/6
f 75/65/5 86/48/5 84/49/5 70/69/5
f 74/65/4 89/70/4 88/71/4 68/69/4
f 64/64/4 87/72/4 89/70/4 74/65/4
f 105/73/3 90/57/3 92/40/3 107/74/3
f 107/74/3 92/40/3 91/43/3 106/75/3
f 72/67/3 95/76/3 94/77/3 71/68/3
f 67/66/3 93/78/3 95/76/3 72/67/3
f 99/79/4 96/56/4 98/44/4 101/80/4
f 101/80/4 98/44/4 97/47/4 100/81/4
f 113/82/4 101/80/4 100/81/4 112/83/4
f 111/84/4 99/79/4 101/80/4 113/82/4
f 95/76/3 104/85/3 103/86/3 94/77/3
f 93/78/3 102/87/3 104/85/3 95/76/3
f 119/88/3 107/74/3 106/75/3 118/89/3
f 117/90/3 105/73/3 107/74/3 119/88/3
f 89/70/4 110/91/4 109/92/4 88/71/4
f 87/72/4 108/93/4 110/91/4 89/70/4
f 76/59/4 111/84/4 113/82/4 79/48/4
f 79/48/4 113/82/4 112/83/4 77/49/4
f 104/85/3 116/62/3 115/63/3 103/86/3
f 102/87/3 114/94/3 116/62/3 104/85/3
f 80/50/3 119/88/3 118/89/3 78/51/3
f 110/91/4 122/60/4 121/61/4 109/92/4
f 108/93/4 120/58/4 122/60/4 110/91/4
usemtl Material.001
f 151/40/3 132/41/3 128/42/3 150/43/3
f 157/44/4 134/45/4 129/46/4 156/47/4
f 145/48/5 131/45/5 130/46/5 143/49/5
f 144/50/6 133/41/6 127/42/6 142/51/6
f 140/52/6 123/53/6 133/41/6 144/50/6
f 141/54/5 126/55/5 131/45/5 145/48/5
f 155/56/4 125/55/4 134/45/4 157/44/4
f 149/57/3 124/53/3 132/41/3 151/40/3
f 173/94/3 135/52/3 139/50/3 175/62/3
f 181/95/6 179/96/6 184/97/6 185/98/6
f 181/60/4 138/48/4 136/49/4 180/61/4
f 175/62/3 139/50/3 137/51/3 174/63/3
f 125/64/5 141/54/5 145/48/5 134/65/5
f 124/66/6 140/52/6 144/50/6 132/67/6
f 132/67/6 144/50/6 142/51/6 128/68/6
f 134/65/5 145/48/5 143/49/5 129/69/5
f 133/65/4 148/70/4 147/71/4 127/69/4
f 123/64/4 146/72/4 148/70/4 133/65/4
f 164/73/3 149/57/3 151/40/3 166/74/3
f 166/74/3 151/40/3 150/43/3 165/75/3
f 131/67/3 154/76/3 153/77/3 130/68/3
f 126/66/3 152/78/3 154/76/3 131/67/3
f 158/79/4 155/56/4 157/44/4 160/80/4
f 160/80/4 157/44/4 156/47/4 159/81/4
f 172/82/4 160/80/4 159/81/4 171/83/4
f 170/84/4 158/79/4 160/80/4 172/82/4
f 154/76/3 163/85/3 162/86/3 153/77/3
f 152/78/3 161/87/3 163/85/3 154/76/3
f 178/88/3 166/74/3 165/75/3 177/89/3
f 176/90/3 164/73/3 166/74/3 178/88/3
f 148/70/4 169/91/4 168/92/4 147/71/4
f 146/72/4 167/93/4 169/91/4 148/70/4
f 138/48/4 172/82/4 171/83/4 136/49/4
f 163/85/3 175/62/3 174/63/3 162/86/3
f 161/87/3 173/94/3 175/62/3 163/85/3
f 135/52/3 176/90/3 178/88/3 139/50/3
f 139/50/3 178/88/3 177/89/3 137/51/3
f 169/91/4 181/60/4 180/61/4 168/92/4
f 167/93/4 179/58/4 181/60/4 169/91/4
f 170/99/5 172/100/5 183/95/5 182/101/5
