# Blender 4.1.1
# www.blender.org
mtllib test 3 walls.mtl
o Plane.002
v -18.000000 0.000000 0.000000
v -2.000000 0.000000 0.000000
v -18.000000 0.000000 -16.000000
v -2.000000 0.000000 -16.000000
v -18.000000 5.000000 0.000000
v -2.000000 5.000000 0.000000
v -18.000000 5.000000 -16.000000
v -2.000000 5.000000 -16.000000
v -2.000000 3.000000 -16.000000
v -2.000000 3.000000 0.000000
v -18.000000 3.000000 0.000000
v -18.000000 3.000000 -16.000000
v -18.000000 0.000000 -8.000000
v -18.000000 5.000000 -8.000000
v -2.000000 5.000000 -8.000000
v -18.000000 3.000000 -8.000000
v -2.000000 3.000000 -8.000000
v -10.000000 0.000000 0.000000
v -10.000000 0.000000 -16.000000
v -10.000000 5.000000 0.000000
v -10.000000 5.000000 -16.000000
v -10.000000 3.000000 0.000000
v -10.000000 3.000000 -16.000000
v -18.000000 0.000000 -4.000000
v -18.000000 5.000000 -4.000000
v -18.000000 3.000000 -4.000000
v -2.000000 0.000000 -4.000000
v -2.000000 5.000000 -4.000000
v -2.000000 3.000000 -4.000000
v -2.000000 0.000000 -12.000000
v -2.000000 5.000000 -12.000000
v -2.000000 3.000000 -12.000000
v -18.000000 0.000000 -12.000000
v -18.000000 5.000000 -12.000000
v -18.000000 3.000000 -12.000000
v -18.000000 0.000000 -10.000000
v -18.000000 5.000000 -10.000000
v -18.000000 3.000000 -10.000000
v -2.000000 0.000000 -10.000000
v -2.000000 5.000000 -10.000000
v -2.000000 3.000000 -10.000000
v -2.000000 0.000000 -6.000000
v -2.000000 5.000000 -6.000000
v -2.000000 3.000000 -6.000000
v -18.000000 0.000000 -6.000000
v -18.000000 5.000000 -6.000000
v -18.000000 3.000000 -6.000000
v -18.000000 0.000000 -9.000000
v -18.000000 5.000000 -9.000000
v -18.000000 3.000000 -9.000000
v -2.000000 0.000000 -9.000000
v -2.000000 5.000000 -9.000000
v -2.000000 3.000000 -9.000000
v -2.000000 0.000000 -7.000000
v -2.000000 5.000000 -7.000000
v -2.000000 3.000000 -7.000000
v -18.000000 0.000000 -7.000000
v -18.000000 5.000000 -7.000000
v -18.000000 3.000000 -7.000000
v 0.000000 0.000000 0.000000
v 16.000000 0.000000 0.000000
v 0.000000 0.000000 -16.000000
v 16.000000 0.000000 -16.000000
v 0.000000 5.000000 0.000000
v 16.000000 5.000000 0.000000
v 0.000000 5.000000 -16.000000
v 16.000000 5.000000 -16.000000
v 16.000000 3.000000 -16.000000
v 16.000000 3.000000 0.000000
v 0.000000 3.000000 0.000000
v 0.000000 3.000000 -16.000000
v 16.000000 0.000000 -8.000000
v 0.000000 5.000000 -8.000000
v 16.000000 5.000000 -8.000000
v 0.000000 3.000000 -8.000000
v 16.000000 3.000000 -8.000000
v 8.000000 0.000000 0.000000
v 8.000000 0.000000 -16.000000
v 8.000000 5.000000 0.000000
v 8.000000 5.000000 -16.000000
v 8.000000 3.000000 0.000000
v 8.000000 3.000000 -16.000000
v 0.000000 0.000000 -4.000000
v 0.000000 5.000000 -4.000000
v 0.000000 3.000000 -4.000000
v 16.000000 0.000000 -4.000000
v 16.000000 5.000000 -4.000000
v 16.000000 3.000000 -4.000000
v 16.000000 0.000000 -12.000000
v 16.000000 5.000000 -12.000000
v 16.000000 3.000000 -12.000000
v 0.000000 0.000000 -12.000000
v 0.000000 5.000000 -12.000000
v 0.000000 3.000000 -12.000000
v 0.000000 0.000000 -10.000000
v 0.000000 5.000000 -10.000000
v 0.000000 3.000000 -10.000000
v 16.000000 0.000000 -10.000000
v 16.000000 5.000000 -10.000000
v 16.000000 3.000000 -10.000000
v 16.000000 0.000000 -6.000000
v 16.000000 5.000000 -6.000000
v 16.000000 3.000000 -6.000000
v 0.000000 0.000000 -6.000000
v 0.000000 5.000000 -6.000000
v 0.000000 3.000000 -6.000000
v 0.000000 0.000000 -9.000000
v 0.000000 5.000000 -9.000000
v 0.000000 3.000000 -9.000000
v 16.000000 0.000000 -9.000000
v 16.000000 5.000000 -9.000000
v 16.000000 3.000000 -9.000000
v 16.000000 0.000000 -7.000000
v 16.000000 5.000000 -7.000000
v 16.000000 3.000000 -7.000000
v 0.000000 0.000000 -7.000000
v 0.000000 5.000000 -7.000000
v 0.000000 3.000000 -7.000000
v -2.000000 0.000000 -9.000000
v -2.000000 3.000000 -9.000000
v -2.000000 0.000000 -7.000000
v -2.000000 3.000000 -7.000000
vn -1.0000 -0.0000 -0.0000
vn 1.0000 -0.0000 -0.0000
vn -0.0000 -0.0000 1.0000
vn -0.0000 -0.0000 -1.0000
vt 12.001011 2.999937
vt 16.000505 2.999937
vt 16.000505 4.999684
vt 12.001011 4.999684
vt 12.001013 2.999937
vt 16.000507 2.999937
vt 16.000507 4.999684
vt 12.001013 4.999684
vt 8.001518 2.999937
vt 8.001518 4.999684
vt 8.001517 2.999937
vt 8.001517 4.999684
vt 8.001517 0.000316
vt 16.000505 0.000316
vt 8.000758 0.000959
vt 16.000507 0.000316
vt 12.001013 0.000316
vt 12.001011 0.000316
vt 7.001645 0.000316
vt 8.001518 0.000316
vt 7.001645 2.999937
vt 7.001645 4.999684
vt 7.001644 2.999937
vt 7.001644 4.999684
vt 0.002530 0.000316
vt 0.002530 2.999937
vt 0.002529 0.000316
vt 0.002529 2.999937
vt 0.002529 4.999684
vt 0.002530 4.999684
vt 4.002024 2.999937
vt 4.002024 4.999684
vt 4.002024 0.000316
vt 10.001265 0.000316
vt 10.001265 2.999937
vt 10.001265 4.999684
vt 4.002023 2.999937
vt 4.002023 4.999684
vt 4.002023 0.000316
vt 10.001266 0.000316
vt 10.001266 2.999937
vt 10.001266 4.999684
vt 9.001392 2.999937
vt 9.001392 4.999684
vt 9.001392 0.000316
vt 6.001770 2.999937
vt 6.001770 4.999684
vt 6.001770 0.000316
vt 9.001390 2.999937
vt 9.001390 4.999684
vt 9.001390 0.000316
vt 6.001771 2.999937
vt 6.001771 4.999684
vt 6.001771 0.000316
vt 7.001644 0.000316
vt 0.000693 2.999913
vt 0.000693 0.000086
vt 2.000577 0.000086
vt 2.000576 2.999913
vt 2.000577 0.000087
vt 2.000577 2.999913
vt 0.000693 0.000087
s 0
usemtl Material.002
f 29/1/1 10/2/1 6/3/1 28/4/1
f 35/5/2 12/6/2 7/7/2 34/8/2
f 23/9/3 9/6/3 8/7/3 21/10/3
f 22/11/4 11/2/4 5/3/4 20/12/4
f 18/13/4 1/14/4 11/2/4 22/11/4
f 19/15/3 4/16/3 9/6/3 23/9/3
f 33/17/2 3/16/2 12/6/2 35/5/2
f 27/18/1 2/14/1 10/2/1 29/1/1
f 57/19/2 13/20/2 16/9/2 59/21/2
f 59/21/2 16/9/2 14/10/2 58/22/2
f 53/23/1 17/11/1 15/12/1 52/24/1
f 3/25/3 19/15/3 23/9/3 12/26/3
f 2/27/4 18/13/4 22/11/4 10/28/4
f 10/28/4 22/11/4 20/12/4 6/29/4
f 12/26/3 23/9/3 21/10/3 7/30/3
f 11/26/2 26/31/2 25/32/2 5/30/2
f 1/25/2 24/33/2 26/31/2 11/26/2
f 42/34/1 27/18/1 29/1/1 44/35/1
f 44/35/1 29/1/1 28/4/1 43/36/1
f 9/28/1 32/37/1 31/38/1 8/29/1
f 4/27/1 30/39/1 32/37/1 9/28/1
f 36/40/2 33/17/2 35/5/2 38/41/2
f 38/41/2 35/5/2 34/8/2 37/42/2
f 50/43/2 38/41/2 37/42/2 49/44/2
f 48/45/2 36/40/2 38/41/2 50/43/2
f 32/37/1 41/46/1 40/47/1 31/38/1
f 30/39/1 39/48/1 41/46/1 32/37/1
f 56/49/1 44/35/1 43/36/1 55/50/1
f 54/51/1 42/34/1 44/35/1 56/49/1
f 26/31/2 47/52/2 46/53/2 25/32/2
f 24/33/2 45/54/2 47/52/2 26/31/2
f 13/20/2 48/45/2 50/43/2 16/9/2
f 16/9/2 50/43/2 49/44/2 14/10/2
f 41/46/1 53/23/1 52/24/1 40/47/1
f 39/48/1 51/55/1 53/23/1 41/46/1
f 17/11/1 56/49/1 55/50/1 15/12/1
f 47/52/2 59/21/2 58/22/2 46/53/2
f 45/54/2 57/19/2 59/21/2 47/52/2
usemtl Material.001
f 88/1/1 69/2/1 65/3/1 87/4/1
f 94/5/2 71/6/2 66/7/2 93/8/2
f 82/9/3 68/6/3 67/7/3 80/10/3
f 81/11/4 70/2/4 64/3/4 79/12/4
f 77/13/4 60/14/4 70/2/4 81/11/4
f 78/15/3 63/16/3 68/6/3 82/9/3
f 92/17/2 62/16/2 71/6/2 94/5/2
f 86/18/1 61/14/1 69/2/1 88/1/1
f 110/55/1 72/13/1 76/11/1 112/23/1
f 118/56/4 116/57/4 121/58/4 122/59/4
f 118/21/2 75/9/2 73/10/2 117/22/2
f 112/23/1 76/11/1 74/12/1 111/24/1
f 62/25/3 78/15/3 82/9/3 71/26/3
f 61/27/4 77/13/4 81/11/4 69/28/4
f 69/28/4 81/11/4 79/12/4 65/29/4
f 71/26/3 82/9/3 80/10/3 66/30/3
f 70/26/2 85/31/2 84/32/2 64/30/2
f 60/25/2 83/33/2 85/31/2 70/26/2
f 101/34/1 86/18/1 88/1/1 103/35/1
f 103/35/1 88/1/1 87/4/1 102/36/1
f 68/28/1 91/37/1 90/38/1 67/29/1
f 63/27/1 89/39/1 91/37/1 68/28/1
f 95/40/2 92/17/2 94/5/2 97/41/2
f 97/41/2 94/5/2 93/8/2 96/42/2
f 109/43/2 97/41/2 96/42/2 108/44/2
f 107/45/2 95/40/2 97/41/2 109/43/2
f 91/37/1 100/46/1 99/47/1 90/38/1
f 89/39/1 98/48/1 100/46/1 91/37/1
f 115/49/1 103/35/1 102/36/1 114/50/1
f 113/51/1 101/34/1 103/35/1 115/49/1
f 85/31/2 106/52/2 105/53/2 84/32/2
f 83/33/2 104/54/2 106/52/2 85/31/2
f 75/9/2 109/43/2 108/44/2 73/10/2
f 100/46/1 112/23/1 111/24/1 99/47/1
f 98/48/1 110/55/1 112/23/1 100/46/1
f 72/13/1 113/51/1 115/49/1 76/11/1
f 76/11/1 115/49/1 114/50/1 74/12/1
f 106/52/2 118/21/2 117/22/2 105/53/2
f 104/54/2 116/19/2 118/21/2 106/52/2
f 107/60/3 109/61/3 120/56/3 119/62/3
